<?xml version="1.0" encoding="UTF-8" standalone="no"?>
<!DOCTYPE svg PUBLIC "-//W3C//DTD SVG 1.1//EN"
 "http://www.w3.org/Graphics/SVG/1.1/DTD/svg11.dtd">
<!-- Generated by graphviz version 13.1.0 (20250701.0955)
 -->
<!-- Title: interface/driver_ds1302_interface.h Pages: 1 -->
<svg width="623pt" height="176pt"
 viewBox="0.00 0.00 623.00 176.00" xmlns="http://www.w3.org/2000/svg" xmlns:xlink="http://www.w3.org/1999/xlink">
<g id="graph0" class="graph" transform="scale(1 1) rotate(0) translate(4 172)">
<title>interface/driver_ds1302_interface.h</title>
<!-- Node1 -->
<g id="Node000001" class="node">
<title>Node1</title>
<g id="a_Node000001"><a xlink:title="driver ds1302 interface header file">
<polygon fill="#999999" stroke="#666666" points="386.88,-168 269.62,-168 269.62,-136 386.88,-136 386.88,-168"/>
<text xml:space="preserve" text-anchor="start" x="277.62" y="-154.5" font-family="Helvetica,sans-Serif" font-size="10.00">interface/driver_ds1302</text>
<text xml:space="preserve" text-anchor="middle" x="328.25" y="-142.5" font-family="Helvetica,sans-Serif" font-size="10.00">_interface.h</text>
</a>
</g>
</g>
<!-- Node2 -->
<g id="Node000002" class="node">
<title>Node2</title>
<g id="a_Node000002"><a xlink:href="driver__ds1302__advance_8h.html" target="_top" xlink:title="driver ds1302 advance header file">
<polygon fill="white" stroke="#666666" points="116.5,-100 0,-100 0,-68 116.5,-68 116.5,-100"/>
<text xml:space="preserve" text-anchor="start" x="8" y="-86.5" font-family="Helvetica,sans-Serif" font-size="10.00">example/driver_ds1302</text>
<text xml:space="preserve" text-anchor="middle" x="58.25" y="-74.5" font-family="Helvetica,sans-Serif" font-size="10.00">_advance.h</text>
</a>
</g>
</g>
<!-- Node1&#45;&gt;Node2 -->
<g id="edge1_Node000001_Node000002" class="edge">
<title>Node1&#45;&gt;Node2</title>
<g id="a_edge1_Node000001_Node000002"><a xlink:title=" ">
<path fill="none" stroke="#63b8ff" d="M258.42,-133.93C214.4,-123.17 158.21,-109.43 116.58,-99.26"/>
<polygon fill="#63b8ff" stroke="#63b8ff" points="257.32,-137.26 267.86,-136.24 258.98,-130.46 257.32,-137.26"/>
</a>
</g>
</g>
<!-- Node4 -->
<g id="Node000004" class="node">
<title>Node4</title>
<g id="a_Node000004"><a xlink:href="driver__ds1302__basic_8h.html" target="_top" xlink:title="driver ds1302 basic header file">
<polygon fill="white" stroke="#666666" points="251.5,-100 135,-100 135,-68 251.5,-68 251.5,-100"/>
<text xml:space="preserve" text-anchor="start" x="143" y="-86.5" font-family="Helvetica,sans-Serif" font-size="10.00">example/driver_ds1302</text>
<text xml:space="preserve" text-anchor="middle" x="193.25" y="-74.5" font-family="Helvetica,sans-Serif" font-size="10.00">_basic.h</text>
</a>
</g>
</g>
<!-- Node1&#45;&gt;Node4 -->
<g id="edge3_Node000001_Node000004" class="edge">
<title>Node1&#45;&gt;Node4</title>
<g id="a_edge3_Node000001_Node000004"><a xlink:title=" ">
<path fill="none" stroke="#63b8ff" d="M286.26,-130.47C266.38,-120.75 243.03,-109.34 224.7,-100.38"/>
<polygon fill="#63b8ff" stroke="#63b8ff" points="284.72,-133.61 295.24,-134.86 287.79,-127.32 284.72,-133.61"/>
</a>
</g>
</g>
<!-- Node6 -->
<g id="Node000006" class="node">
<title>Node6</title>
<g id="a_Node000006"><a xlink:href="driver__ds1302__interface__template_8c.html" target="_top" xlink:title="driver ds1302 interface template source file">
<polygon fill="white" stroke="#666666" points="386.88,-100 269.62,-100 269.62,-68 386.88,-68 386.88,-100"/>
<text xml:space="preserve" text-anchor="start" x="277.62" y="-86.5" font-family="Helvetica,sans-Serif" font-size="10.00">interface/driver_ds1302</text>
<text xml:space="preserve" text-anchor="middle" x="328.25" y="-74.5" font-family="Helvetica,sans-Serif" font-size="10.00">_interface_template.c</text>
</a>
</g>
</g>
<!-- Node1&#45;&gt;Node6 -->
<g id="edge5_Node000001_Node000006" class="edge">
<title>Node1&#45;&gt;Node6</title>
<g id="a_edge5_Node000001_Node000006"><a xlink:title=" ">
<path fill="none" stroke="#63b8ff" d="M328.25,-124.31C328.25,-116.12 328.25,-107.38 328.25,-100.22"/>
<polygon fill="#63b8ff" stroke="#63b8ff" points="324.75,-124.18 328.25,-134.18 331.75,-124.18 324.75,-124.18"/>
</a>
</g>
</g>
<!-- Node7 -->
<g id="Node000007" class="node">
<title>Node7</title>
<g id="a_Node000007"><a xlink:href="driver__ds1302__ram__test_8h.html" target="_top" xlink:title="driver ds1302 ram test header file">
<polygon fill="white" stroke="#666666" points="501.38,-100 405.12,-100 405.12,-68 501.38,-68 501.38,-100"/>
<text xml:space="preserve" text-anchor="start" x="413.12" y="-86.5" font-family="Helvetica,sans-Serif" font-size="10.00">test/driver_ds1302</text>
<text xml:space="preserve" text-anchor="middle" x="453.25" y="-74.5" font-family="Helvetica,sans-Serif" font-size="10.00">_ram_test.h</text>
</a>
</g>
</g>
<!-- Node1&#45;&gt;Node7 -->
<g id="edge6_Node000001_Node000007" class="edge">
<title>Node1&#45;&gt;Node7</title>
<g id="a_edge6_Node000001_Node000007"><a xlink:title=" ">
<path fill="none" stroke="#63b8ff" d="M367.64,-130.2C385.94,-120.54 407.31,-109.26 424.13,-100.38"/>
<polygon fill="#63b8ff" stroke="#63b8ff" points="366.1,-127.05 358.9,-134.82 369.37,-133.25 366.1,-127.05"/>
</a>
</g>
</g>
<!-- Node9 -->
<g id="Node000009" class="node">
<title>Node9</title>
<g id="a_Node000009"><a xlink:href="driver__ds1302__register__test_8h.html" target="_top" xlink:title="driver ds1302 register test header file">
<polygon fill="white" stroke="#666666" points="615.38,-100 519.12,-100 519.12,-68 615.38,-68 615.38,-100"/>
<text xml:space="preserve" text-anchor="start" x="527.12" y="-86.5" font-family="Helvetica,sans-Serif" font-size="10.00">test/driver_ds1302</text>
<text xml:space="preserve" text-anchor="middle" x="567.25" y="-74.5" font-family="Helvetica,sans-Serif" font-size="10.00">_register_test.h</text>
</a>
</g>
</g>
<!-- Node1&#45;&gt;Node9 -->
<g id="edge8_Node000001_Node000009" class="edge">
<title>Node1&#45;&gt;Node9</title>
<g id="a_edge8_Node000001_Node000009"><a xlink:title=" ">
<path fill="none" stroke="#63b8ff" d="M395.36,-132.47C434.63,-121.62 483.32,-108.18 518.84,-98.37"/>
<polygon fill="#63b8ff" stroke="#63b8ff" points="394.45,-129.09 385.74,-135.12 396.31,-135.83 394.45,-129.09"/>
</a>
</g>
</g>
<!-- Node3 -->
<g id="Node000003" class="node">
<title>Node3</title>
<g id="a_Node000003"><a xlink:href="driver__ds1302__advance_8c.html" target="_top" xlink:title="driver ds1302 advance source file">
<polygon fill="white" stroke="#666666" points="116.5,-32 0,-32 0,0 116.5,0 116.5,-32"/>
<text xml:space="preserve" text-anchor="start" x="8" y="-18.5" font-family="Helvetica,sans-Serif" font-size="10.00">example/driver_ds1302</text>
<text xml:space="preserve" text-anchor="middle" x="58.25" y="-6.5" font-family="Helvetica,sans-Serif" font-size="10.00">_advance.c</text>
</a>
</g>
</g>
<!-- Node2&#45;&gt;Node3 -->
<g id="edge2_Node000002_Node000003" class="edge">
<title>Node2&#45;&gt;Node3</title>
<g id="a_edge2_Node000002_Node000003"><a xlink:title=" ">
<path fill="none" stroke="#63b8ff" d="M58.25,-56.31C58.25,-48.12 58.25,-39.38 58.25,-32.22"/>
<polygon fill="#63b8ff" stroke="#63b8ff" points="54.75,-56.18 58.25,-66.18 61.75,-56.18 54.75,-56.18"/>
</a>
</g>
</g>
<!-- Node5 -->
<g id="Node000005" class="node">
<title>Node5</title>
<g id="a_Node000005"><a xlink:href="driver__ds1302__basic_8c.html" target="_top" xlink:title="driver ds1302 basic source file">
<polygon fill="white" stroke="#666666" points="251.5,-32 135,-32 135,0 251.5,0 251.5,-32"/>
<text xml:space="preserve" text-anchor="start" x="143" y="-18.5" font-family="Helvetica,sans-Serif" font-size="10.00">example/driver_ds1302</text>
<text xml:space="preserve" text-anchor="middle" x="193.25" y="-6.5" font-family="Helvetica,sans-Serif" font-size="10.00">_basic.c</text>
</a>
</g>
</g>
<!-- Node4&#45;&gt;Node5 -->
<g id="edge4_Node000004_Node000005" class="edge">
<title>Node4&#45;&gt;Node5</title>
<g id="a_edge4_Node000004_Node000005"><a xlink:title=" ">
<path fill="none" stroke="#63b8ff" d="M193.25,-56.31C193.25,-48.12 193.25,-39.38 193.25,-32.22"/>
<polygon fill="#63b8ff" stroke="#63b8ff" points="189.75,-56.18 193.25,-66.18 196.75,-56.18 189.75,-56.18"/>
</a>
</g>
</g>
<!-- Node8 -->
<g id="Node000008" class="node">
<title>Node8</title>
<g id="a_Node000008"><a xlink:href="driver__ds1302__ram__test_8c.html" target="_top" xlink:title="driver ds1302 ram test source file">
<polygon fill="white" stroke="#666666" points="501.38,-32 405.12,-32 405.12,0 501.38,0 501.38,-32"/>
<text xml:space="preserve" text-anchor="start" x="413.12" y="-18.5" font-family="Helvetica,sans-Serif" font-size="10.00">test/driver_ds1302</text>
<text xml:space="preserve" text-anchor="middle" x="453.25" y="-6.5" font-family="Helvetica,sans-Serif" font-size="10.00">_ram_test.c</text>
</a>
</g>
</g>
<!-- Node7&#45;&gt;Node8 -->
<g id="edge7_Node000007_Node000008" class="edge">
<title>Node7&#45;&gt;Node8</title>
<g id="a_edge7_Node000007_Node000008"><a xlink:title=" ">
<path fill="none" stroke="#63b8ff" d="M453.25,-56.31C453.25,-48.12 453.25,-39.38 453.25,-32.22"/>
<polygon fill="#63b8ff" stroke="#63b8ff" points="449.75,-56.18 453.25,-66.18 456.75,-56.18 449.75,-56.18"/>
</a>
</g>
</g>
<!-- Node10 -->
<g id="Node000010" class="node">
<title>Node10</title>
<g id="a_Node000010"><a xlink:href="driver__ds1302__register__test_8c.html" target="_top" xlink:title="driver ds1302 register test source file">
<polygon fill="white" stroke="#666666" points="615.38,-32 519.12,-32 519.12,0 615.38,0 615.38,-32"/>
<text xml:space="preserve" text-anchor="start" x="527.12" y="-18.5" font-family="Helvetica,sans-Serif" font-size="10.00">test/driver_ds1302</text>
<text xml:space="preserve" text-anchor="middle" x="567.25" y="-6.5" font-family="Helvetica,sans-Serif" font-size="10.00">_register_test.c</text>
</a>
</g>
</g>
<!-- Node9&#45;&gt;Node10 -->
<g id="edge9_Node000009_Node000010" class="edge">
<title>Node9&#45;&gt;Node10</title>
<g id="a_edge9_Node000009_Node000010"><a xlink:title=" ">
<path fill="none" stroke="#63b8ff" d="M567.25,-56.31C567.25,-48.12 567.25,-39.38 567.25,-32.22"/>
<polygon fill="#63b8ff" stroke="#63b8ff" points="563.75,-56.18 567.25,-66.18 570.75,-56.18 563.75,-56.18"/>
</a>
</g>
</g>
</g>
</svg>
