<?xml version="1.0" encoding="UTF-8" standalone="no"?>
<!DOCTYPE svg PUBLIC "-//W3C//DTD SVG 1.1//EN"
 "http://www.w3.org/Graphics/SVG/1.1/DTD/svg11.dtd">
<!-- Generated by graphviz version 13.1.0 (20250701.0955)
 -->
<!-- Title: ds1302_advance_init Pages: 1 -->
<svg width="289pt" height="768pt"
 viewBox="0.00 0.00 289.00 768.00" xmlns="http://www.w3.org/2000/svg" xmlns:xlink="http://www.w3.org/1999/xlink">
<g id="graph0" class="graph" transform="scale(1 1) rotate(0) translate(4 764)">
<title>ds1302_advance_init</title>
<!-- Node1 -->
<g id="Node000001" class="node">
<title>Node1</title>
<g id="a_Node000001"><a xlink:title="advance example init">
<polygon fill="#999999" stroke="#666666" points="107.5,-402 0,-402 0,-382 107.5,-382 107.5,-402"/>
<text xml:space="preserve" text-anchor="middle" x="53.75" y="-388.5" font-family="Helvetica,sans-Serif" font-size="10.00">ds1302_advance_init</text>
</a>
</g>
</g>
<!-- Node2 -->
<g id="Node000002" class="node">
<title>Node2</title>
<g id="a_Node000002"><a xlink:href="group__ds1302__basic__driver.html#ga1ff7176e95e3aebf410141d4eef02e4e" target="_top" xlink:title="close the chip">
<polygon fill="white" stroke="#666666" points="250.25,-760 174.25,-760 174.25,-740 250.25,-740 250.25,-760"/>
<text xml:space="preserve" text-anchor="middle" x="212.25" y="-746.5" font-family="Helvetica,sans-Serif" font-size="10.00">ds1302_deinit</text>
</a>
</g>
</g>
<!-- Node1&#45;&gt;Node2 -->
<g id="edge1_Node000001_Node000002" class="edge">
<title>Node1&#45;&gt;Node2</title>
<g id="a_edge1_Node000001_Node000002"><a xlink:title=" ">
<path fill="none" stroke="#63b8ff" d="M56.05,-402.17C62.75,-453.3 95.1,-681.75 143.5,-731 148.91,-736.5 155.77,-740.45 163.04,-743.27"/>
<polygon fill="#63b8ff" stroke="#63b8ff" points="161.83,-746.55 172.42,-746.19 163.92,-739.87 161.83,-746.55"/>
</a>
</g>
</g>
<!-- Node3 -->
<g id="Node000003" class="node">
<title>Node3</title>
<g id="a_Node000003"><a xlink:href="group__ds1302__basic__driver.html#ga07ae5d88684b28eb8b5b9989f0d6bb77" target="_top" xlink:title="initialize the chip">
<polygon fill="white" stroke="#666666" points="245,-722 179.5,-722 179.5,-702 245,-702 245,-722"/>
<text xml:space="preserve" text-anchor="middle" x="212.25" y="-708.5" font-family="Helvetica,sans-Serif" font-size="10.00">ds1302_init</text>
</a>
</g>
</g>
<!-- Node1&#45;&gt;Node3 -->
<g id="edge2_Node000001_Node000003" class="edge">
<title>Node1&#45;&gt;Node3</title>
<g id="a_edge2_Node000001_Node000003"><a xlink:title=" ">
<path fill="none" stroke="#63b8ff" d="M54.47,-402.31C53.91,-444.82 57.6,-608.24 143.5,-693 150.24,-699.65 159.1,-704.01 168.19,-706.87"/>
<polygon fill="#63b8ff" stroke="#63b8ff" points="167.24,-710.24 177.8,-709.28 168.95,-703.45 167.24,-710.24"/>
</a>
</g>
</g>
<!-- Node4 -->
<g id="Node000004" class="node">
<title>Node4</title>
<g id="a_Node000004"><a xlink:href="group__ds1302__interface__driver.html#gad80ca4a0c86b6d1c6be478c60c57b957" target="_top" xlink:title="interface ce gpio deinit">
<polygon fill="white" stroke="#666666" points="265.25,-684 159.25,-684 159.25,-652 265.25,-652 265.25,-684"/>
<text xml:space="preserve" text-anchor="start" x="167.25" y="-670.5" font-family="Helvetica,sans-Serif" font-size="10.00">ds1302_interface_ce</text>
<text xml:space="preserve" text-anchor="middle" x="212.25" y="-658.5" font-family="Helvetica,sans-Serif" font-size="10.00">_gpio_deinit</text>
</a>
</g>
</g>
<!-- Node1&#45;&gt;Node4 -->
<g id="edge3_Node000001_Node000004" class="edge">
<title>Node1&#45;&gt;Node4</title>
<g id="a_edge3_Node000001_Node000004"><a xlink:title=" ">
<path fill="none" stroke="#63b8ff" d="M55.38,-402.47C58.2,-440.29 72.9,-571.43 143.5,-643 145.29,-644.81 147.22,-646.5 149.26,-648.06"/>
<polygon fill="#63b8ff" stroke="#63b8ff" points="147.21,-650.9 157.52,-653.34 150.98,-645 147.21,-650.9"/>
</a>
</g>
</g>
<!-- Node5 -->
<g id="Node000005" class="node">
<title>Node5</title>
<g id="a_Node000005"><a xlink:href="group__ds1302__interface__driver.html#ga1fa64dd0c467e8f0f30e3ea76232c555" target="_top" xlink:title="interface ce gpio init">
<polygon fill="white" stroke="#666666" points="265.25,-634 159.25,-634 159.25,-602 265.25,-602 265.25,-634"/>
<text xml:space="preserve" text-anchor="start" x="167.25" y="-620.5" font-family="Helvetica,sans-Serif" font-size="10.00">ds1302_interface_ce</text>
<text xml:space="preserve" text-anchor="middle" x="212.25" y="-608.5" font-family="Helvetica,sans-Serif" font-size="10.00">_gpio_init</text>
</a>
</g>
</g>
<!-- Node1&#45;&gt;Node5 -->
<g id="edge4_Node000001_Node000005" class="edge">
<title>Node1&#45;&gt;Node5</title>
<g id="a_edge4_Node000001_Node000005"><a xlink:title=" ">
<path fill="none" stroke="#63b8ff" d="M56.41,-402.4C62.17,-435.16 84.29,-537.36 143.5,-593 145.32,-594.71 147.26,-596.3 149.31,-597.79"/>
<polygon fill="#63b8ff" stroke="#63b8ff" points="147.14,-600.57 157.49,-602.85 150.83,-594.62 147.14,-600.57"/>
</a>
</g>
</g>
<!-- Node6 -->
<g id="Node000006" class="node">
<title>Node6</title>
<g id="a_Node000006"><a xlink:href="group__ds1302__interface__driver.html#gae497eb6bba87179aa8480cfd79cd2fe3" target="_top" xlink:title="interface ce gpio write">
<polygon fill="white" stroke="#666666" points="265.25,-584 159.25,-584 159.25,-552 265.25,-552 265.25,-584"/>
<text xml:space="preserve" text-anchor="start" x="167.25" y="-570.5" font-family="Helvetica,sans-Serif" font-size="10.00">ds1302_interface_ce</text>
<text xml:space="preserve" text-anchor="middle" x="212.25" y="-558.5" font-family="Helvetica,sans-Serif" font-size="10.00">_gpio_write</text>
</a>
</g>
</g>
<!-- Node1&#45;&gt;Node6 -->
<g id="edge5_Node000001_Node000006" class="edge">
<title>Node1&#45;&gt;Node6</title>
<g id="a_edge5_Node000001_Node000006"><a xlink:title=" ">
<path fill="none" stroke="#63b8ff" d="M58.09,-402.43C67.26,-429.53 95.45,-502.82 143.5,-543 145.38,-544.57 147.36,-546.04 149.42,-547.43"/>
<polygon fill="#63b8ff" stroke="#63b8ff" points="147.19,-550.18 157.59,-552.19 150.71,-544.13 147.19,-550.18"/>
</a>
</g>
</g>
<!-- Node7 -->
<g id="Node000007" class="node">
<title>Node7</title>
<g id="a_Node000007"><a xlink:href="group__ds1302__interface__driver.html#ga4a67821cca9213d8a879c8ac87f9de48" target="_top" xlink:title="interface print format data">
<polygon fill="white" stroke="#666666" points="273.12,-534 151.38,-534 151.38,-502 273.12,-502 273.12,-534"/>
<text xml:space="preserve" text-anchor="start" x="159.38" y="-520.5" font-family="Helvetica,sans-Serif" font-size="10.00">ds1302_interface_debug</text>
<text xml:space="preserve" text-anchor="middle" x="212.25" y="-508.5" font-family="Helvetica,sans-Serif" font-size="10.00">_print</text>
</a>
</g>
</g>
<!-- Node1&#45;&gt;Node7 -->
<g id="edge6_Node000001_Node000007" class="edge">
<title>Node1&#45;&gt;Node7</title>
<g id="a_edge6_Node000001_Node000007"><a xlink:title=" ">
<path fill="none" stroke="#63b8ff" d="M61.28,-402.39C74.45,-422.58 106.17,-467.37 143.5,-493 145.1,-494.1 146.75,-495.15 148.45,-496.17"/>
<polygon fill="#63b8ff" stroke="#63b8ff" points="146.72,-499.22 157.19,-500.84 150.02,-493.04 146.72,-499.22"/>
</a>
</g>
</g>
<!-- Node8 -->
<g id="Node000008" class="node">
<title>Node8</title>
<g id="a_Node000008"><a xlink:href="group__ds1302__interface__driver.html#gaa5901fb79c2d3694726ee334b1c75a61" target="_top" xlink:title="interface delay ms">
<polygon fill="white" stroke="#666666" points="281,-484 143.5,-484 143.5,-464 281,-464 281,-484"/>
<text xml:space="preserve" text-anchor="middle" x="212.25" y="-470.5" font-family="Helvetica,sans-Serif" font-size="10.00">ds1302_interface_delay_ms</text>
</a>
</g>
</g>
<!-- Node1&#45;&gt;Node8 -->
<g id="edge7_Node000001_Node000008" class="edge">
<title>Node1&#45;&gt;Node8</title>
<g id="a_edge7_Node000001_Node000008"><a xlink:title=" ">
<path fill="none" stroke="#63b8ff" d="M66.54,-402.41C82.79,-416.27 113.49,-440.67 143.5,-455 147.19,-456.76 151.07,-458.39 155.04,-459.88"/>
<polygon fill="#63b8ff" stroke="#63b8ff" points="153.61,-463.09 164.2,-463.05 155.89,-456.47 153.61,-463.09"/>
</a>
</g>
</g>
<!-- Node9 -->
<g id="Node000009" class="node">
<title>Node9</title>
<g id="a_Node000009"><a xlink:href="group__ds1302__interface__driver.html#ga9e941282671f4575ab46391b6b01bcf4" target="_top" xlink:title="interface delay us">
<polygon fill="white" stroke="#666666" points="279.5,-446 145,-446 145,-426 279.5,-426 279.5,-446"/>
<text xml:space="preserve" text-anchor="middle" x="212.25" y="-432.5" font-family="Helvetica,sans-Serif" font-size="10.00">ds1302_interface_delay_us</text>
</a>
</g>
</g>
<!-- Node1&#45;&gt;Node9 -->
<g id="edge8_Node000001_Node000009" class="edge">
<title>Node1&#45;&gt;Node9</title>
<g id="a_edge8_Node000001_Node000009"><a xlink:title=" ">
<path fill="none" stroke="#63b8ff" d="M91.88,-402.47C107.78,-406.95 126.55,-412.24 143.5,-417 149.83,-418.78 156.49,-420.65 163.06,-422.49"/>
<polygon fill="#63b8ff" stroke="#63b8ff" points="161.94,-425.81 172.52,-425.15 163.83,-419.07 161.94,-425.81"/>
</a>
</g>
</g>
<!-- Node10 -->
<g id="Node000010" class="node">
<title>Node10</title>
<g id="a_Node000010"><a xlink:href="group__ds1302__interface__driver.html#ga8bf684e36b46fd38186776343f6a033c" target="_top" xlink:title="interface io gpio deinit">
<polygon fill="white" stroke="#666666" points="263.75,-408 160.75,-408 160.75,-376 263.75,-376 263.75,-408"/>
<text xml:space="preserve" text-anchor="start" x="168.75" y="-394.5" font-family="Helvetica,sans-Serif" font-size="10.00">ds1302_interface_io</text>
<text xml:space="preserve" text-anchor="middle" x="212.25" y="-382.5" font-family="Helvetica,sans-Serif" font-size="10.00">_gpio_deinit</text>
</a>
</g>
</g>
<!-- Node1&#45;&gt;Node10 -->
<g id="edge9_Node000001_Node000010" class="edge">
<title>Node1&#45;&gt;Node10</title>
<g id="a_edge9_Node000001_Node000010"><a xlink:title=" ">
<path fill="none" stroke="#63b8ff" d="M107.73,-392C121.04,-392 135.43,-392 149.13,-392"/>
<polygon fill="#63b8ff" stroke="#63b8ff" points="148.93,-395.5 158.93,-392 148.93,-388.5 148.93,-395.5"/>
</a>
</g>
</g>
<!-- Node11 -->
<g id="Node000011" class="node">
<title>Node11</title>
<g id="a_Node000011"><a xlink:href="group__ds1302__interface__driver.html#ga94842b011dcafa593cbf4ad7a2672ef3" target="_top" xlink:title="interface io gpio init">
<polygon fill="white" stroke="#666666" points="263.75,-358 160.75,-358 160.75,-326 263.75,-326 263.75,-358"/>
<text xml:space="preserve" text-anchor="start" x="168.75" y="-344.5" font-family="Helvetica,sans-Serif" font-size="10.00">ds1302_interface_io</text>
<text xml:space="preserve" text-anchor="middle" x="212.25" y="-332.5" font-family="Helvetica,sans-Serif" font-size="10.00">_gpio_init</text>
</a>
</g>
</g>
<!-- Node1&#45;&gt;Node11 -->
<g id="edge10_Node000001_Node000011" class="edge">
<title>Node1&#45;&gt;Node11</title>
<g id="a_edge10_Node000001_Node000011"><a xlink:title=" ">
<path fill="none" stroke="#63b8ff" d="M87.56,-381.52C105.49,-375.79 128.31,-368.5 149.44,-361.75"/>
<polygon fill="#63b8ff" stroke="#63b8ff" points="150.4,-365.11 158.86,-358.74 148.27,-358.45 150.4,-365.11"/>
</a>
</g>
</g>
<!-- Node12 -->
<g id="Node000012" class="node">
<title>Node12</title>
<g id="a_Node000012"><a xlink:href="group__ds1302__interface__driver.html#ga5552392333df226acee2eec6fc9c681d" target="_top" xlink:title="interface io gpio read">
<polygon fill="white" stroke="#666666" points="263.75,-308 160.75,-308 160.75,-276 263.75,-276 263.75,-308"/>
<text xml:space="preserve" text-anchor="start" x="168.75" y="-294.5" font-family="Helvetica,sans-Serif" font-size="10.00">ds1302_interface_io</text>
<text xml:space="preserve" text-anchor="middle" x="212.25" y="-282.5" font-family="Helvetica,sans-Serif" font-size="10.00">_gpio_read</text>
</a>
</g>
</g>
<!-- Node1&#45;&gt;Node12 -->
<g id="edge11_Node000001_Node000012" class="edge">
<title>Node1&#45;&gt;Node12</title>
<g id="a_edge11_Node000001_Node000012"><a xlink:title=" ">
<path fill="none" stroke="#63b8ff" d="M64.5,-381.72C79.96,-365.92 111.6,-335.58 143.5,-317 145.79,-315.67 148.15,-314.39 150.58,-313.16"/>
<polygon fill="#63b8ff" stroke="#63b8ff" points="151.82,-316.44 159.39,-309.02 148.85,-310.1 151.82,-316.44"/>
</a>
</g>
</g>
<!-- Node13 -->
<g id="Node000013" class="node">
<title>Node13</title>
<g id="a_Node000013"><a xlink:href="group__ds1302__interface__driver.html#ga2c370582e350705994d397fa849423e9" target="_top" xlink:title="interface io gpio write">
<polygon fill="white" stroke="#666666" points="263.75,-258 160.75,-258 160.75,-226 263.75,-226 263.75,-258"/>
<text xml:space="preserve" text-anchor="start" x="168.75" y="-244.5" font-family="Helvetica,sans-Serif" font-size="10.00">ds1302_interface_io</text>
<text xml:space="preserve" text-anchor="middle" x="212.25" y="-232.5" font-family="Helvetica,sans-Serif" font-size="10.00">_gpio_write</text>
</a>
</g>
</g>
<!-- Node1&#45;&gt;Node13 -->
<g id="edge12_Node000001_Node000013" class="edge">
<title>Node1&#45;&gt;Node13</title>
<g id="a_edge12_Node000001_Node000013"><a xlink:title=" ">
<path fill="none" stroke="#63b8ff" d="M59.4,-381.67C70.54,-358.03 101.02,-299.52 143.5,-267 145.64,-265.36 147.9,-263.82 150.25,-262.37"/>
<polygon fill="#63b8ff" stroke="#63b8ff" points="151.81,-265.51 158.93,-257.66 148.47,-259.35 151.81,-265.51"/>
</a>
</g>
</g>
<!-- Node14 -->
<g id="Node000014" class="node">
<title>Node14</title>
<g id="a_Node000014"><a xlink:href="group__ds1302__interface__driver.html#ga360b045ebbe72730cf8e9659737edba3" target="_top" xlink:title="interface sclk gpio deinit">
<polygon fill="white" stroke="#666666" points="269,-208 155.5,-208 155.5,-176 269,-176 269,-208"/>
<text xml:space="preserve" text-anchor="start" x="163.5" y="-194.5" font-family="Helvetica,sans-Serif" font-size="10.00">ds1302_interface_sclk</text>
<text xml:space="preserve" text-anchor="middle" x="212.25" y="-182.5" font-family="Helvetica,sans-Serif" font-size="10.00">_gpio_deinit</text>
</a>
</g>
</g>
<!-- Node1&#45;&gt;Node14 -->
<g id="edge13_Node000001_Node000014" class="edge">
<title>Node1&#45;&gt;Node14</title>
<g id="a_edge13_Node000001_Node000014"><a xlink:title=" ">
<path fill="none" stroke="#63b8ff" d="M57.14,-381.69C64.58,-351.86 90.07,-264.57 143.5,-217 144.41,-216.19 145.35,-215.4 146.32,-214.64"/>
<polygon fill="#63b8ff" stroke="#63b8ff" points="147.98,-217.74 154.35,-209.27 144.09,-211.92 147.98,-217.74"/>
</a>
</g>
</g>
<!-- Node15 -->
<g id="Node000015" class="node">
<title>Node15</title>
<g id="a_Node000015"><a xlink:href="group__ds1302__interface__driver.html#gac5639f45e85ed98e2f33fcbc690b52a0" target="_top" xlink:title="interface sclk gpio init">
<polygon fill="white" stroke="#666666" points="269,-158 155.5,-158 155.5,-126 269,-126 269,-158"/>
<text xml:space="preserve" text-anchor="start" x="163.5" y="-144.5" font-family="Helvetica,sans-Serif" font-size="10.00">ds1302_interface_sclk</text>
<text xml:space="preserve" text-anchor="middle" x="212.25" y="-132.5" font-family="Helvetica,sans-Serif" font-size="10.00">_gpio_init</text>
</a>
</g>
</g>
<!-- Node1&#45;&gt;Node15 -->
<g id="edge14_Node000001_Node000015" class="edge">
<title>Node1&#45;&gt;Node15</title>
<g id="a_edge14_Node000001_Node000015"><a xlink:title=" ">
<path fill="none" stroke="#63b8ff" d="M55.85,-381.64C60.14,-346.46 78.81,-230.27 143.5,-167 144.37,-166.15 145.28,-165.32 146.21,-164.52"/>
<polygon fill="#63b8ff" stroke="#63b8ff" points="147.93,-167.6 154.04,-158.94 143.87,-161.9 147.93,-167.6"/>
</a>
</g>
</g>
<!-- Node16 -->
<g id="Node000016" class="node">
<title>Node16</title>
<g id="a_Node000016"><a xlink:href="group__ds1302__interface__driver.html#ga390dc855eb9908ffa62eea76b7859197" target="_top" xlink:title="interface sclk gpio write">
<polygon fill="white" stroke="#666666" points="269,-108 155.5,-108 155.5,-76 269,-76 269,-108"/>
<text xml:space="preserve" text-anchor="start" x="163.5" y="-94.5" font-family="Helvetica,sans-Serif" font-size="10.00">ds1302_interface_sclk</text>
<text xml:space="preserve" text-anchor="middle" x="212.25" y="-82.5" font-family="Helvetica,sans-Serif" font-size="10.00">_gpio_write</text>
</a>
</g>
</g>
<!-- Node1&#45;&gt;Node16 -->
<g id="edge15_Node000001_Node000016" class="edge">
<title>Node1&#45;&gt;Node16</title>
<g id="a_edge15_Node000001_Node000016"><a xlink:title=" ">
<path fill="none" stroke="#63b8ff" d="M55,-381.67C56.51,-341.83 67.26,-196.46 143.5,-117 144.35,-116.12 145.23,-115.27 146.14,-114.45"/>
<polygon fill="#63b8ff" stroke="#63b8ff" points="147.88,-117.51 153.82,-108.73 143.71,-111.89 147.88,-117.51"/>
</a>
</g>
</g>
<!-- Node17 -->
<g id="Node000017" class="node">
<title>Node17</title>
<g id="a_Node000017"><a xlink:href="group__ds1302__basic__driver.html#ga3b818d9bdcb9d4688409c4e378541fd4" target="_top" xlink:title="enable or disable the oscillator">
<polygon fill="white" stroke="#666666" points="267.5,-58 157,-58 157,-38 267.5,-38 267.5,-58"/>
<text xml:space="preserve" text-anchor="middle" x="212.25" y="-44.5" font-family="Helvetica,sans-Serif" font-size="10.00">ds1302_set_oscillator</text>
</a>
</g>
</g>
<!-- Node1&#45;&gt;Node17 -->
<g id="edge16_Node000001_Node000017" class="edge">
<title>Node1&#45;&gt;Node17</title>
<g id="a_edge16_Node000001_Node000017"><a xlink:title=" ">
<path fill="none" stroke="#63b8ff" d="M54.2,-381.5C52.46,-336.67 51.79,-159.34 143.5,-67 144.68,-65.81 145.94,-64.69 147.25,-63.64"/>
<polygon fill="#63b8ff" stroke="#63b8ff" points="148.79,-66.81 155.33,-58.48 145.02,-60.91 148.79,-66.81"/>
</a>
</g>
</g>
<!-- Node18 -->
<g id="Node000018" class="node">
<title>Node18</title>
<g id="a_Node000018"><a xlink:href="group__ds1302__basic__driver.html#ga08a387a6d7df51955e64fdca6f035528" target="_top" xlink:title="enable or disable write protect">
<polygon fill="white" stroke="#666666" points="276.12,-20 148.38,-20 148.38,0 276.12,0 276.12,-20"/>
<text xml:space="preserve" text-anchor="middle" x="212.25" y="-6.5" font-family="Helvetica,sans-Serif" font-size="10.00">ds1302_set_write_protect</text>
</a>
</g>
</g>
<!-- Node1&#45;&gt;Node18 -->
<g id="edge17_Node000001_Node000018" class="edge">
<title>Node1&#45;&gt;Node18</title>
<g id="a_edge17_Node000001_Node000018"><a xlink:title=" ">
<path fill="none" stroke="#63b8ff" d="M55.86,-381.83C61.86,-328.57 92.09,-82.17 143.5,-29 144.22,-28.25 144.98,-27.53 145.75,-26.84"/>
<polygon fill="#63b8ff" stroke="#63b8ff" points="147.47,-29.91 153.64,-21.3 143.44,-24.18 147.47,-29.91"/>
</a>
</g>
</g>
</g>
</svg>
