<?xml version="1.0" encoding="UTF-8" standalone="no"?>
<!DOCTYPE svg PUBLIC "-//W3C//DTD SVG 1.1//EN"
 "http://www.w3.org/Graphics/SVG/1.1/DTD/svg11.dtd">
<!-- Generated by graphviz version 13.1.0 (20250701.0955)
 -->
<!-- Title: ds1302_advance_burst_read Pages: 1 -->
<svg width="312pt" height="66pt"
 viewBox="0.00 0.00 312.00 66.00" xmlns="http://www.w3.org/2000/svg" xmlns:xlink="http://www.w3.org/1999/xlink">
<g id="graph0" class="graph" transform="scale(1 1) rotate(0) translate(4 62)">
<title>ds1302_advance_burst_read</title>
<!-- Node1 -->
<g id="Node000001" class="node">
<title>Node1</title>
<g id="a_Node000001"><a xlink:title="advance example burst read">
<polygon fill="#999999" stroke="#666666" points="140.5,-39 0,-39 0,-19 140.5,-19 140.5,-39"/>
<text xml:space="preserve" text-anchor="middle" x="70.25" y="-25.5" font-family="Helvetica,sans-Serif" font-size="10.00">ds1302_advance_burst_read</text>
</a>
</g>
</g>
<!-- Node2 -->
<g id="Node000002" class="node">
<title>Node2</title>
<g id="a_Node000002"><a xlink:href="group__ds1302__advance__driver.html#ga043d95d9527ead14629b9d99cfa166fb" target="_top" xlink:title="clock burst read">
<polygon fill="white" stroke="#666666" points="303.5,-58 176.5,-58 176.5,-38 303.5,-38 303.5,-58"/>
<text xml:space="preserve" text-anchor="middle" x="240" y="-44.5" font-family="Helvetica,sans-Serif" font-size="10.00">ds1302_clock_burst_read</text>
</a>
</g>
</g>
<!-- Node1&#45;&gt;Node2 -->
<g id="edge1_Node000001_Node000002" class="edge">
<title>Node1&#45;&gt;Node2</title>
<g id="a_edge1_Node000001_Node000002"><a xlink:title=" ">
<path fill="none" stroke="#63b8ff" d="M140.93,-36.89C148.89,-37.79 157.02,-38.71 165.02,-39.62"/>
<polygon fill="#63b8ff" stroke="#63b8ff" points="164.4,-43.07 174.73,-40.72 165.19,-36.12 164.4,-43.07"/>
</a>
</g>
</g>
<!-- Node3 -->
<g id="Node000003" class="node">
<title>Node3</title>
<g id="a_Node000003"><a xlink:href="group__ds1302__advance__driver.html#gafbe86eee28feb3fe9f9b8dc44a1f25d4" target="_top" xlink:title="ram burst read">
<polygon fill="white" stroke="#666666" points="300.12,-20 179.88,-20 179.88,0 300.12,0 300.12,-20"/>
<text xml:space="preserve" text-anchor="middle" x="240" y="-6.5" font-family="Helvetica,sans-Serif" font-size="10.00">ds1302_ram_burst_read</text>
</a>
</g>
</g>
<!-- Node1&#45;&gt;Node3 -->
<g id="edge2_Node000001_Node000003" class="edge">
<title>Node1&#45;&gt;Node3</title>
<g id="a_edge2_Node000001_Node000003"><a xlink:title=" ">
<path fill="none" stroke="#63b8ff" d="M140.93,-21.11C149.92,-20.09 159.13,-19.05 168.14,-18.03"/>
<polygon fill="#63b8ff" stroke="#63b8ff" points="168.36,-21.52 177.9,-16.92 167.57,-14.57 168.36,-21.52"/>
</a>
</g>
</g>
</g>
</svg>
