<?xml version="1.0" encoding="UTF-8" standalone="no"?>
<!DOCTYPE svg PUBLIC "-//W3C//DTD SVG 1.1//EN"
 "http://www.w3.org/Graphics/SVG/1.1/DTD/svg11.dtd">
<!-- Generated by graphviz version 13.1.0 (20250701.0955)
 -->
<!-- Title: ds1302_advance_burst_write Pages: 1 -->
<svg width="283pt" height="78pt"
 viewBox="0.00 0.00 283.00 78.00" xmlns="http://www.w3.org/2000/svg" xmlns:xlink="http://www.w3.org/1999/xlink">
<g id="graph0" class="graph" transform="scale(1 1) rotate(0) translate(4 74)">
<title>ds1302_advance_burst_write</title>
<!-- Node1 -->
<g id="Node000001" class="node">
<title>Node1</title>
<g id="a_Node000001"><a xlink:title="advance example burst write">
<polygon fill="#999999" stroke="#666666" points="116.5,-48 0,-48 0,-16 116.5,-16 116.5,-48"/>
<text xml:space="preserve" text-anchor="start" x="8" y="-34.5" font-family="Helvetica,sans-Serif" font-size="10.00">ds1302_advance_burst</text>
<text xml:space="preserve" text-anchor="middle" x="58.25" y="-22.5" font-family="Helvetica,sans-Serif" font-size="10.00">_write</text>
</a>
</g>
</g>
<!-- Node2 -->
<g id="Node000002" class="node">
<title>Node2</title>
<g id="a_Node000002"><a xlink:href="group__ds1302__advance__driver.html#gae5f6b0020e8a5655d75036e4cd8f6d1f" target="_top" xlink:title="clock burst write">
<polygon fill="white" stroke="#666666" points="265.25,-70 162.25,-70 162.25,-38 265.25,-38 265.25,-70"/>
<text xml:space="preserve" text-anchor="start" x="170.25" y="-56.5" font-family="Helvetica,sans-Serif" font-size="10.00">ds1302_clock_burst</text>
<text xml:space="preserve" text-anchor="middle" x="213.75" y="-44.5" font-family="Helvetica,sans-Serif" font-size="10.00">_write</text>
</a>
</g>
</g>
<!-- Node1&#45;&gt;Node2 -->
<g id="edge1_Node000001_Node000002" class="edge">
<title>Node1&#45;&gt;Node2</title>
<g id="a_edge1_Node000001_Node000002"><a xlink:title=" ">
<path fill="none" stroke="#63b8ff" d="M116.84,-40.25C127.95,-41.85 139.62,-43.52 150.85,-45.13"/>
<polygon fill="#63b8ff" stroke="#63b8ff" points="150,-48.54 160.4,-46.5 151,-41.61 150,-48.54"/>
</a>
</g>
</g>
<!-- Node3 -->
<g id="Node000003" class="node">
<title>Node3</title>
<g id="a_Node000003"><a xlink:href="group__ds1302__advance__driver.html#ga692355d6669f75886ff4ec6f112199b4" target="_top" xlink:title="ram burst write">
<polygon fill="white" stroke="#666666" points="275,-20 152.5,-20 152.5,0 275,0 275,-20"/>
<text xml:space="preserve" text-anchor="middle" x="213.75" y="-6.5" font-family="Helvetica,sans-Serif" font-size="10.00">ds1302_ram_burst_write</text>
</a>
</g>
</g>
<!-- Node1&#45;&gt;Node3 -->
<g id="edge2_Node000001_Node000003" class="edge">
<title>Node1&#45;&gt;Node3</title>
<g id="a_edge2_Node000001_Node000003"><a xlink:title=" ">
<path fill="none" stroke="#63b8ff" d="M116.84,-23.75C124.65,-22.63 132.74,-21.47 140.76,-20.32"/>
<polygon fill="#63b8ff" stroke="#63b8ff" points="141.11,-23.8 150.51,-18.92 140.12,-16.87 141.11,-23.8"/>
</a>
</g>
</g>
</g>
</svg>
