<?xml version="1.0" encoding="UTF-8" standalone="no"?>
<!DOCTYPE svg PUBLIC "-//W3C//DTD SVG 1.1//EN"
 "http://www.w3.org/Graphics/SVG/1.1/DTD/svg11.dtd">
<!-- Generated by graphviz version 13.1.0 (20250701.0955)
 -->
<!-- Title: ds1302_basic_init Pages: 1 -->
<svg width="276pt" height="768pt"
 viewBox="0.00 0.00 276.00 768.00" xmlns="http://www.w3.org/2000/svg" xmlns:xlink="http://www.w3.org/1999/xlink">
<g id="graph0" class="graph" transform="scale(1 1) rotate(0) translate(4 764)">
<title>ds1302_basic_init</title>
<!-- Node1 -->
<g id="Node000001" class="node">
<title>Node1</title>
<g id="a_Node000001"><a xlink:title="basic example init">
<polygon fill="#999999" stroke="#666666" points="94,-402 0,-402 0,-382 94,-382 94,-402"/>
<text xml:space="preserve" text-anchor="middle" x="47" y="-388.5" font-family="Helvetica,sans-Serif" font-size="10.00">ds1302_basic_init</text>
</a>
</g>
</g>
<!-- Node2 -->
<g id="Node000002" class="node">
<title>Node2</title>
<g id="a_Node000002"><a xlink:href="group__ds1302__basic__driver.html#ga1ff7176e95e3aebf410141d4eef02e4e" target="_top" xlink:title="close the chip">
<polygon fill="white" stroke="#666666" points="236.75,-760 160.75,-760 160.75,-740 236.75,-740 236.75,-760"/>
<text xml:space="preserve" text-anchor="middle" x="198.75" y="-746.5" font-family="Helvetica,sans-Serif" font-size="10.00">ds1302_deinit</text>
</a>
</g>
</g>
<!-- Node1&#45;&gt;Node2 -->
<g id="edge1_Node000001_Node000002" class="edge">
<title>Node1&#45;&gt;Node2</title>
<g id="a_edge1_Node000001_Node000002"><a xlink:title=" ">
<path fill="none" stroke="#63b8ff" d="M49.08,-402.16C54.72,-453.25 82.29,-681.53 130,-731 135.36,-736.55 142.19,-740.52 149.45,-743.35"/>
<polygon fill="#63b8ff" stroke="#63b8ff" points="148.24,-746.64 158.83,-746.28 150.33,-739.96 148.24,-746.64"/>
</a>
</g>
</g>
<!-- Node3 -->
<g id="Node000003" class="node">
<title>Node3</title>
<g id="a_Node000003"><a xlink:href="group__ds1302__basic__driver.html#ga07ae5d88684b28eb8b5b9989f0d6bb77" target="_top" xlink:title="initialize the chip">
<polygon fill="white" stroke="#666666" points="231.5,-722 166,-722 166,-702 231.5,-702 231.5,-722"/>
<text xml:space="preserve" text-anchor="middle" x="198.75" y="-708.5" font-family="Helvetica,sans-Serif" font-size="10.00">ds1302_init</text>
</a>
</g>
</g>
<!-- Node1&#45;&gt;Node3 -->
<g id="edge2_Node000001_Node000003" class="edge">
<title>Node1&#45;&gt;Node3</title>
<g id="a_edge2_Node000001_Node000003"><a xlink:title=" ">
<path fill="none" stroke="#63b8ff" d="M47.46,-402.29C45.83,-444.71 45.49,-607.85 130,-693 136.67,-699.72 145.51,-704.11 154.59,-706.97"/>
<polygon fill="#63b8ff" stroke="#63b8ff" points="153.65,-710.34 164.2,-709.38 155.35,-703.55 153.65,-710.34"/>
</a>
</g>
</g>
<!-- Node4 -->
<g id="Node000004" class="node">
<title>Node4</title>
<g id="a_Node000004"><a xlink:href="group__ds1302__interface__driver.html#gad80ca4a0c86b6d1c6be478c60c57b957" target="_top" xlink:title="interface ce gpio deinit">
<polygon fill="white" stroke="#666666" points="251.75,-684 145.75,-684 145.75,-652 251.75,-652 251.75,-684"/>
<text xml:space="preserve" text-anchor="start" x="153.75" y="-670.5" font-family="Helvetica,sans-Serif" font-size="10.00">ds1302_interface_ce</text>
<text xml:space="preserve" text-anchor="middle" x="198.75" y="-658.5" font-family="Helvetica,sans-Serif" font-size="10.00">_gpio_deinit</text>
</a>
</g>
</g>
<!-- Node1&#45;&gt;Node4 -->
<g id="edge3_Node000001_Node000004" class="edge">
<title>Node1&#45;&gt;Node4</title>
<g id="a_edge3_Node000001_Node000004"><a xlink:title=" ">
<path fill="none" stroke="#63b8ff" d="M48.31,-402.45C50.01,-440.22 60.84,-571.18 130,-643 131.94,-645.02 134.06,-646.87 136.3,-648.57"/>
<polygon fill="#63b8ff" stroke="#63b8ff" points="133.93,-651.21 144.25,-653.63 137.69,-645.31 133.93,-651.21"/>
</a>
</g>
</g>
<!-- Node5 -->
<g id="Node000005" class="node">
<title>Node5</title>
<g id="a_Node000005"><a xlink:href="group__ds1302__interface__driver.html#ga1fa64dd0c467e8f0f30e3ea76232c555" target="_top" xlink:title="interface ce gpio init">
<polygon fill="white" stroke="#666666" points="251.75,-634 145.75,-634 145.75,-602 251.75,-602 251.75,-634"/>
<text xml:space="preserve" text-anchor="start" x="153.75" y="-620.5" font-family="Helvetica,sans-Serif" font-size="10.00">ds1302_interface_ce</text>
<text xml:space="preserve" text-anchor="middle" x="198.75" y="-608.5" font-family="Helvetica,sans-Serif" font-size="10.00">_gpio_init</text>
</a>
</g>
</g>
<!-- Node1&#45;&gt;Node5 -->
<g id="edge4_Node000001_Node000005" class="edge">
<title>Node1&#45;&gt;Node5</title>
<g id="a_edge4_Node000001_Node000005"><a xlink:title=" ">
<path fill="none" stroke="#63b8ff" d="M49.28,-402.39C53.84,-435.11 72.28,-537.21 130,-593 131.83,-594.77 133.8,-596.42 135.87,-597.95"/>
<polygon fill="#63b8ff" stroke="#63b8ff" points="133.88,-600.83 144.21,-603.15 137.58,-594.89 133.88,-600.83"/>
</a>
</g>
</g>
<!-- Node6 -->
<g id="Node000006" class="node">
<title>Node6</title>
<g id="a_Node000006"><a xlink:href="group__ds1302__interface__driver.html#gae497eb6bba87179aa8480cfd79cd2fe3" target="_top" xlink:title="interface ce gpio write">
<polygon fill="white" stroke="#666666" points="251.75,-584 145.75,-584 145.75,-552 251.75,-552 251.75,-584"/>
<text xml:space="preserve" text-anchor="start" x="153.75" y="-570.5" font-family="Helvetica,sans-Serif" font-size="10.00">ds1302_interface_ce</text>
<text xml:space="preserve" text-anchor="middle" x="198.75" y="-558.5" font-family="Helvetica,sans-Serif" font-size="10.00">_gpio_write</text>
</a>
</g>
</g>
<!-- Node1&#45;&gt;Node6 -->
<g id="edge5_Node000001_Node000006" class="edge">
<title>Node1&#45;&gt;Node6</title>
<g id="a_edge5_Node000001_Node000006"><a xlink:title=" ">
<path fill="none" stroke="#63b8ff" d="M50.84,-402.43C58.75,-429.52 83.53,-502.78 130,-543 131.85,-544.6 133.81,-546.1 135.85,-547.51"/>
<polygon fill="#63b8ff" stroke="#63b8ff" points="133.58,-550.23 143.96,-552.33 137.16,-544.21 133.58,-550.23"/>
</a>
</g>
</g>
<!-- Node7 -->
<g id="Node000007" class="node">
<title>Node7</title>
<g id="a_Node000007"><a xlink:href="group__ds1302__interface__driver.html#ga4a67821cca9213d8a879c8ac87f9de48" target="_top" xlink:title="interface print format data">
<polygon fill="white" stroke="#666666" points="259.62,-534 137.88,-534 137.88,-502 259.62,-502 259.62,-534"/>
<text xml:space="preserve" text-anchor="start" x="145.88" y="-520.5" font-family="Helvetica,sans-Serif" font-size="10.00">ds1302_interface_debug</text>
<text xml:space="preserve" text-anchor="middle" x="198.75" y="-508.5" font-family="Helvetica,sans-Serif" font-size="10.00">_print</text>
</a>
</g>
</g>
<!-- Node1&#45;&gt;Node7 -->
<g id="edge6_Node000001_Node000007" class="edge">
<title>Node1&#45;&gt;Node7</title>
<g id="a_edge6_Node000001_Node000007"><a xlink:title=" ">
<path fill="none" stroke="#63b8ff" d="M53.83,-402.42C65.65,-422.65 94.37,-467.5 130,-493 131.54,-494.1 133.14,-495.16 134.78,-496.18"/>
<polygon fill="#63b8ff" stroke="#63b8ff" points="132.77,-499.07 143.22,-500.84 136.15,-492.94 132.77,-499.07"/>
</a>
</g>
</g>
<!-- Node8 -->
<g id="Node000008" class="node">
<title>Node8</title>
<g id="a_Node000008"><a xlink:href="group__ds1302__interface__driver.html#gaa5901fb79c2d3694726ee334b1c75a61" target="_top" xlink:title="interface delay ms">
<polygon fill="white" stroke="#666666" points="267.5,-484 130,-484 130,-464 267.5,-464 267.5,-484"/>
<text xml:space="preserve" text-anchor="middle" x="198.75" y="-470.5" font-family="Helvetica,sans-Serif" font-size="10.00">ds1302_interface_delay_ms</text>
</a>
</g>
</g>
<!-- Node1&#45;&gt;Node8 -->
<g id="edge7_Node000001_Node000008" class="edge">
<title>Node1&#45;&gt;Node8</title>
<g id="a_edge7_Node000001_Node000008"><a xlink:title=" ">
<path fill="none" stroke="#63b8ff" d="M58.74,-402.47C73.58,-416.38 101.75,-440.85 130,-455 133.44,-456.72 137.05,-458.3 140.75,-459.76"/>
<polygon fill="#63b8ff" stroke="#63b8ff" points="139.28,-462.96 149.88,-463.02 141.64,-456.36 139.28,-462.96"/>
</a>
</g>
</g>
<!-- Node9 -->
<g id="Node000009" class="node">
<title>Node9</title>
<g id="a_Node000009"><a xlink:href="group__ds1302__interface__driver.html#ga9e941282671f4575ab46391b6b01bcf4" target="_top" xlink:title="interface delay us">
<polygon fill="white" stroke="#666666" points="266,-446 131.5,-446 131.5,-426 266,-426 266,-446"/>
<text xml:space="preserve" text-anchor="middle" x="198.75" y="-432.5" font-family="Helvetica,sans-Serif" font-size="10.00">ds1302_interface_delay_us</text>
</a>
</g>
</g>
<!-- Node1&#45;&gt;Node9 -->
<g id="edge8_Node000001_Node000009" class="edge">
<title>Node1&#45;&gt;Node9</title>
<g id="a_edge8_Node000001_Node000009"><a xlink:title=" ">
<path fill="none" stroke="#63b8ff" d="M81.46,-402.39C96.31,-406.95 114,-412.32 130,-417 136.23,-418.82 142.8,-420.71 149.29,-422.55"/>
<polygon fill="#63b8ff" stroke="#63b8ff" points="148.05,-425.84 158.62,-425.19 149.95,-419.1 148.05,-425.84"/>
</a>
</g>
</g>
<!-- Node10 -->
<g id="Node000010" class="node">
<title>Node10</title>
<g id="a_Node000010"><a xlink:href="group__ds1302__interface__driver.html#ga8bf684e36b46fd38186776343f6a033c" target="_top" xlink:title="interface io gpio deinit">
<polygon fill="white" stroke="#666666" points="250.25,-408 147.25,-408 147.25,-376 250.25,-376 250.25,-408"/>
<text xml:space="preserve" text-anchor="start" x="155.25" y="-394.5" font-family="Helvetica,sans-Serif" font-size="10.00">ds1302_interface_io</text>
<text xml:space="preserve" text-anchor="middle" x="198.75" y="-382.5" font-family="Helvetica,sans-Serif" font-size="10.00">_gpio_deinit</text>
</a>
</g>
</g>
<!-- Node1&#45;&gt;Node10 -->
<g id="edge9_Node000001_Node000010" class="edge">
<title>Node1&#45;&gt;Node10</title>
<g id="a_edge9_Node000001_Node000010"><a xlink:title=" ">
<path fill="none" stroke="#63b8ff" d="M94.15,-392C107.18,-392 121.57,-392 135.38,-392"/>
<polygon fill="#63b8ff" stroke="#63b8ff" points="135.28,-395.5 145.28,-392 135.28,-388.5 135.28,-395.5"/>
</a>
</g>
</g>
<!-- Node11 -->
<g id="Node000011" class="node">
<title>Node11</title>
<g id="a_Node000011"><a xlink:href="group__ds1302__interface__driver.html#ga94842b011dcafa593cbf4ad7a2672ef3" target="_top" xlink:title="interface io gpio init">
<polygon fill="white" stroke="#666666" points="250.25,-358 147.25,-358 147.25,-326 250.25,-326 250.25,-358"/>
<text xml:space="preserve" text-anchor="start" x="155.25" y="-344.5" font-family="Helvetica,sans-Serif" font-size="10.00">ds1302_interface_io</text>
<text xml:space="preserve" text-anchor="middle" x="198.75" y="-332.5" font-family="Helvetica,sans-Serif" font-size="10.00">_gpio_init</text>
</a>
</g>
</g>
<!-- Node1&#45;&gt;Node11 -->
<g id="edge10_Node000001_Node000011" class="edge">
<title>Node1&#45;&gt;Node11</title>
<g id="a_edge10_Node000001_Node000011"><a xlink:title=" ">
<path fill="none" stroke="#63b8ff" d="M79.39,-381.52C96.25,-375.89 117.62,-368.76 137.54,-362.1"/>
<polygon fill="#63b8ff" stroke="#63b8ff" points="138.61,-365.44 146.98,-358.95 136.39,-358.8 138.61,-365.44"/>
</a>
</g>
</g>
<!-- Node12 -->
<g id="Node000012" class="node">
<title>Node12</title>
<g id="a_Node000012"><a xlink:href="group__ds1302__interface__driver.html#ga5552392333df226acee2eec6fc9c681d" target="_top" xlink:title="interface io gpio read">
<polygon fill="white" stroke="#666666" points="250.25,-308 147.25,-308 147.25,-276 250.25,-276 250.25,-308"/>
<text xml:space="preserve" text-anchor="start" x="155.25" y="-294.5" font-family="Helvetica,sans-Serif" font-size="10.00">ds1302_interface_io</text>
<text xml:space="preserve" text-anchor="middle" x="198.75" y="-282.5" font-family="Helvetica,sans-Serif" font-size="10.00">_gpio_read</text>
</a>
</g>
</g>
<!-- Node1&#45;&gt;Node12 -->
<g id="edge11_Node000001_Node000012" class="edge">
<title>Node1&#45;&gt;Node12</title>
<g id="a_edge11_Node000001_Node000012"><a xlink:title=" ">
<path fill="none" stroke="#63b8ff" d="M56.85,-381.66C70.9,-365.8 99.85,-335.37 130,-317 132.13,-315.7 134.34,-314.45 136.6,-313.26"/>
<polygon fill="#63b8ff" stroke="#63b8ff" points="137.94,-316.5 145.42,-308.99 134.9,-310.19 137.94,-316.5"/>
</a>
</g>
</g>
<!-- Node13 -->
<g id="Node000013" class="node">
<title>Node13</title>
<g id="a_Node000013"><a xlink:href="group__ds1302__interface__driver.html#ga2c370582e350705994d397fa849423e9" target="_top" xlink:title="interface io gpio write">
<polygon fill="white" stroke="#666666" points="250.25,-258 147.25,-258 147.25,-226 250.25,-226 250.25,-258"/>
<text xml:space="preserve" text-anchor="start" x="155.25" y="-244.5" font-family="Helvetica,sans-Serif" font-size="10.00">ds1302_interface_io</text>
<text xml:space="preserve" text-anchor="middle" x="198.75" y="-232.5" font-family="Helvetica,sans-Serif" font-size="10.00">_gpio_write</text>
</a>
</g>
</g>
<!-- Node1&#45;&gt;Node13 -->
<g id="edge12_Node000001_Node000013" class="edge">
<title>Node1&#45;&gt;Node13</title>
<g id="a_edge12_Node000001_Node000013"><a xlink:title=" ">
<path fill="none" stroke="#63b8ff" d="M52.07,-381.67C61.91,-358.01 89.17,-299.47 130,-267 132.23,-265.22 134.6,-263.57 137.07,-262.02"/>
<polygon fill="#63b8ff" stroke="#63b8ff" points="138.56,-265.2 145.64,-257.32 135.19,-259.06 138.56,-265.2"/>
</a>
</g>
</g>
<!-- Node14 -->
<g id="Node000014" class="node">
<title>Node14</title>
<g id="a_Node000014"><a xlink:href="group__ds1302__interface__driver.html#ga360b045ebbe72730cf8e9659737edba3" target="_top" xlink:title="interface sclk gpio deinit">
<polygon fill="white" stroke="#666666" points="255.5,-208 142,-208 142,-176 255.5,-176 255.5,-208"/>
<text xml:space="preserve" text-anchor="start" x="150" y="-194.5" font-family="Helvetica,sans-Serif" font-size="10.00">ds1302_interface_sclk</text>
<text xml:space="preserve" text-anchor="middle" x="198.75" y="-182.5" font-family="Helvetica,sans-Serif" font-size="10.00">_gpio_deinit</text>
</a>
</g>
</g>
<!-- Node1&#45;&gt;Node14 -->
<g id="edge13_Node000001_Node000014" class="edge">
<title>Node1&#45;&gt;Node14</title>
<g id="a_edge13_Node000001_Node000014"><a xlink:title=" ">
<path fill="none" stroke="#63b8ff" d="M49.97,-381.7C56.17,-351.89 78.11,-264.67 130,-217 130.77,-216.29 131.56,-215.61 132.36,-214.94"/>
<polygon fill="#63b8ff" stroke="#63b8ff" points="134.2,-217.93 140.42,-209.36 130.21,-212.18 134.2,-217.93"/>
</a>
</g>
</g>
<!-- Node15 -->
<g id="Node000015" class="node">
<title>Node15</title>
<g id="a_Node000015"><a xlink:href="group__ds1302__interface__driver.html#gac5639f45e85ed98e2f33fcbc690b52a0" target="_top" xlink:title="interface sclk gpio init">
<polygon fill="white" stroke="#666666" points="255.5,-158 142,-158 142,-126 255.5,-126 255.5,-158"/>
<text xml:space="preserve" text-anchor="start" x="150" y="-144.5" font-family="Helvetica,sans-Serif" font-size="10.00">ds1302_interface_sclk</text>
<text xml:space="preserve" text-anchor="middle" x="198.75" y="-132.5" font-family="Helvetica,sans-Serif" font-size="10.00">_gpio_init</text>
</a>
</g>
</g>
<!-- Node1&#45;&gt;Node15 -->
<g id="edge14_Node000001_Node000015" class="edge">
<title>Node1&#45;&gt;Node15</title>
<g id="a_edge14_Node000001_Node000015"><a xlink:title=" ">
<path fill="none" stroke="#63b8ff" d="M48.74,-381.9C51.82,-347.06 66.63,-230.63 130,-167 130.86,-166.13 131.76,-165.3 132.68,-164.49"/>
<polygon fill="#63b8ff" stroke="#63b8ff" points="134.41,-167.56 140.45,-158.86 130.3,-161.89 134.41,-167.56"/>
</a>
</g>
</g>
<!-- Node16 -->
<g id="Node000016" class="node">
<title>Node16</title>
<g id="a_Node000016"><a xlink:href="group__ds1302__interface__driver.html#ga390dc855eb9908ffa62eea76b7859197" target="_top" xlink:title="interface sclk gpio write">
<polygon fill="white" stroke="#666666" points="255.5,-108 142,-108 142,-76 255.5,-76 255.5,-108"/>
<text xml:space="preserve" text-anchor="start" x="150" y="-94.5" font-family="Helvetica,sans-Serif" font-size="10.00">ds1302_interface_sclk</text>
<text xml:space="preserve" text-anchor="middle" x="198.75" y="-82.5" font-family="Helvetica,sans-Serif" font-size="10.00">_gpio_write</text>
</a>
</g>
</g>
<!-- Node1&#45;&gt;Node16 -->
<g id="edge15_Node000001_Node000016" class="edge">
<title>Node1&#45;&gt;Node16</title>
<g id="a_edge15_Node000001_Node000016"><a xlink:title=" ">
<path fill="none" stroke="#63b8ff" d="M47.96,-381.69C48.38,-341.91 55.18,-196.75 130,-117 130.86,-116.09 131.75,-115.2 132.68,-114.36"/>
<polygon fill="#63b8ff" stroke="#63b8ff" points="134.65,-117.25 140.56,-108.46 130.46,-111.65 134.65,-117.25"/>
</a>
</g>
</g>
<!-- Node17 -->
<g id="Node000017" class="node">
<title>Node17</title>
<g id="a_Node000017"><a xlink:href="group__ds1302__basic__driver.html#ga3b818d9bdcb9d4688409c4e378541fd4" target="_top" xlink:title="enable or disable the oscillator">
<polygon fill="white" stroke="#666666" points="254,-58 143.5,-58 143.5,-38 254,-38 254,-58"/>
<text xml:space="preserve" text-anchor="middle" x="198.75" y="-44.5" font-family="Helvetica,sans-Serif" font-size="10.00">ds1302_set_oscillator</text>
</a>
</g>
</g>
<!-- Node1&#45;&gt;Node17 -->
<g id="edge16_Node000001_Node000017" class="edge">
<title>Node1&#45;&gt;Node17</title>
<g id="a_edge16_Node000001_Node000017"><a xlink:title=" ">
<path fill="none" stroke="#63b8ff" d="M49.22,-381.6C55.34,-331.33 84.12,-114.1 130,-67 131.17,-65.8 132.41,-64.67 133.71,-63.61"/>
<polygon fill="#63b8ff" stroke="#63b8ff" points="135.26,-66.78 141.76,-58.41 131.46,-60.9 135.26,-66.78"/>
</a>
</g>
</g>
<!-- Node18 -->
<g id="Node000018" class="node">
<title>Node18</title>
<g id="a_Node000018"><a xlink:href="group__ds1302__basic__driver.html#ga08a387a6d7df51955e64fdca6f035528" target="_top" xlink:title="enable or disable write protect">
<polygon fill="white" stroke="#666666" points="262.62,-20 134.88,-20 134.88,0 262.62,0 262.62,-20"/>
<text xml:space="preserve" text-anchor="middle" x="198.75" y="-6.5" font-family="Helvetica,sans-Serif" font-size="10.00">ds1302_set_write_protect</text>
</a>
</g>
</g>
<!-- Node1&#45;&gt;Node18 -->
<g id="edge17_Node000001_Node000018" class="edge">
<title>Node1&#45;&gt;Node18</title>
<g id="a_edge17_Node000001_Node000018"><a xlink:title=" ">
<path fill="none" stroke="#63b8ff" d="M48.91,-381.84C53.86,-328.62 79.27,-82.4 130,-29 130.72,-28.24 131.46,-27.52 132.23,-26.82"/>
<polygon fill="#63b8ff" stroke="#63b8ff" points="133.96,-29.89 140.08,-21.24 129.9,-24.18 133.96,-29.89"/>
</a>
</g>
</g>
</g>
</svg>
